<?xml version="1.0" encoding="UTF-8"?>
<svg id="Layer_1" data-name="Layer 1" xmlns="http://www.w3.org/2000/svg" viewBox="0 0 80 80">
  <defs>
    <style>
      .cls-1 {
        fill: #f4e9df;
        fill-rule: evenodd;
        stroke-width: 0px;
      }
    </style>
  </defs>
  <path class="cls-1" d="m64.16,14.75l-23.8-5.95c-.24-.06-.48-.06-.72,0l-23.8,5.95c-.66.17-1.13.76-1.13,1.44v23.8c0,22.45,24.37,31.01,24.81,31.16.31.11.64.11.95,0,.44-.15,24.81-8.71,24.81-31.16v-23.8c0-.68-.46-1.28-1.13-1.44Zm-10.23,31.47l-4.61,4.61-9.32-9.32-9.32,9.32-4.61-4.61,9.32-9.32-9.32-9.32,4.61-4.61,9.32,9.32,9.32-9.32,4.61,4.61-9.32,9.32,9.32,9.32Z"/>
</svg>