<?xml version="1.0" encoding="UTF-8"?>
<svg id="Layer_1" data-name="Layer 1" xmlns="http://www.w3.org/2000/svg" viewBox="0 0 80 80">
  <defs>
    <style>
      .cls-1 {
        fill: #f4e9df;
        stroke-width: 0px;
      }
    </style>
  </defs>
  <path class="cls-1" d="m48.02,23.09v-3.43h-3.49v-.17h-9.39v.17h-3.49v3.43H12.53v13.23l2.08-.23v24.42h50.85v-30.18l2.08-.23v-7h-19.51Zm-14.63-1.68h1.74v.18h9.39v-.18h1.74v1.68h-12.88v-1.68Zm6.19,35.94c-5.38,0-10.33-2.95-12.92-7.69l-.38-.69-1.13.31,1.74-5.4,4.22,3.79-1.62.44.84,1.17c2.14,2.98,5.6,4.75,9.25,4.75,4.78,0,9.03-3.04,10.66-7.43l2.62,2.34c-2.43,5.13-7.57,8.42-13.28,8.42Zm-4.79-8.63s-.01-.08-.03-.12l-.1-.2s-.03-.09-.03-.13v-6.54c0-.07.01-.14.04-.2l.31-.73c.03-.06.04-.12.04-.19,0-.36.03-1.61.03-2.24,0-.75.41-2.48.8-2.48s.8,1.68.8,2.48c0,.69.02,1.91.02,2.25,0,.06.01.12.03.17l.28.74c.02.06.03.12.03.18v6.54c0,.05-.01.11-.04.15l-.09.16s-.04.1-.04.15v.09h.18v.13c0,.08-.07.14-.15.14h-2.12c-.08,0-.15-.06-.15-.14v-.13h.18v-.08Zm4.05,0s-.01-.08-.03-.12l-.1-.2s-.03-.09-.03-.13v-6.54c0-.07.01-.14.04-.2l.31-.73c.03-.06.04-.12.04-.19,0-.36.03-1.61.03-2.24,0-.75.41-2.48.8-2.48s.8,1.68.8,2.48c0,.69.02,1.91.02,2.25,0,.06.01.12.03.17l.28.74c.02.06.03.12.03.18v6.54c0,.05-.01.11-.04.15l-.09.16s-.04.1-.04.15v.09h.18v.13c0,.08-.07.14-.15.14h-2.12c-.08,0-.15-.06-.15-.14v-.13h.18v-.08Zm4.3,0s-.01-.08-.03-.12l-.1-.2s-.03-.09-.03-.13v-6.54c0-.07.01-.14.04-.2l.31-.73c.03-.06.04-.12.04-.19,0-.36.03-1.61.03-2.24,0-.75.41-2.48.8-2.48s.8,1.68.8,2.48c0,.69.02,1.91.02,2.25,0,.06.01.12.03.17l.28.74c.02.06.03.12.03.18v6.54c0,.05-.01.11-.04.15l-.09.16s-.04.1-.04.15v.09h.18v.13c0,.08-.07.14-.15.14h-2.12c-.08,0-.15-.06-.15-.14v-.13h.18v-.08Zm9.63-6.64l-4.22-3.79,1.62-.44-.84-1.17c-2.14-2.97-5.6-4.75-9.25-4.75-4.78,0-9.03,3.04-10.66,7.43l-2.62-2.35c2.43-5.14,7.57-8.42,13.28-8.42,5.38,0,10.33,2.95,12.92,7.69l.38.69,1.14-.31-1.74,5.4Z"/>
</svg>