<?xml version="1.0" encoding="UTF-8" standalone="no"?>
<svg
   id="Layer_1"
   data-name="Layer 1"
   viewBox="0 0 80 80"
   version="1.1"
   sodipodi:docname="icn-tacrose-tows.svg"
   xml:space="preserve"
   inkscape:version="1.3 (0e150ed6c4, 2023-07-21)"
   xmlns:inkscape="http://www.inkscape.org/namespaces/inkscape"
   xmlns:sodipodi="http://sodipodi.sourceforge.net/DTD/sodipodi-0.dtd"
   xmlns="http://www.w3.org/2000/svg"
   xmlns:svg="http://www.w3.org/2000/svg"><sodipodi:namedview
     id="namedview12"
     pagecolor="#ffffff"
     bordercolor="#000000"
     borderopacity="0.25"
     inkscape:showpageshadow="2"
     inkscape:pageopacity="0.0"
     inkscape:pagecheckerboard="0"
     inkscape:deskcolor="#d1d1d1"
     showgrid="false"
     inkscape:zoom="3.5620504"
     inkscape:cx="31.442565"
     inkscape:cy="45.619792"
     inkscape:window-width="1920"
     inkscape:window-height="1009"
     inkscape:window-x="-8"
     inkscape:window-y="-8"
     inkscape:window-maximized="1"
     inkscape:current-layer="Layer_1" /><defs
     id="defs1"><style
       id="style1">&#10;      .cls-1 {&#10;        fill: none;&#10;      }&#10;&#10;      .cls-1, .cls-2 {&#10;        stroke-width: 0px;&#10;      }&#10;&#10;      .cls-3 {&#10;        clip-path: url(#clippath);&#10;      }&#10;&#10;      .cls-2 {&#10;        fill: #f4e9df;&#10;      }&#10;    </style><clipPath
       id="clippath"><rect
         class="cls-1"
         x="88.42"
         y="18.03"
         width="75"
         height="46.91"
         id="rect1" /></clipPath></defs><g
     id="g12"
     transform="matrix(0.83432746,0,0,0.87030678,-25.099332,-81.931036)"
     style="fill:#f4e9df;fill-opacity:1;stroke-width:1.17353"><g
       id="g2"
       transform="translate(27.512244,83.659681)"
       style="fill:#f4e9df;fill-opacity:1;stroke-width:1.17353"><path
         d="m 78.854,54.481 -9.98,-1.13 -0.99,1.203 h -0.487 c -1.159,-2.538 -3.721,-4.209 -6.541,-4.209 -2.427,0 -4.653,1.24 -5.968,3.203 l -0.945,-1.895 -45.836,-5.2 0.928,-8.165 49.939,5.665 0.066,-0.61 -1.682,-0.191 0.361,-3.19 1.682,0.193 0.113,-0.994 -2.932,-0.331 0.467,-4.137 3.942,0.451 0.122,-1.073 4.902,0.552 -0.121,1.075 1.346,0.156 -0.097,0.826 2.31,0.265 -0.191,1.698 -1.777,-0.199 -0.324,2.862 1.776,0.2 -0.192,1.704 -1.781,-0.205 -0.205,1.827 13.025,1.483 z"
         id="path1"
         style="fill:#f4e9df;fill-opacity:1;stroke-width:1.17353" /><path
         d="M 35.339,77.458 53.816,63.925 h -0.311 v -2.904 h 2.002 c -0.262,-0.404 -0.48,-0.839 -0.648,-1.304 h -3.436 v -4.354 h 3.436 c 0.891,-2.45 3.238,-4.207 5.997,-4.207 2.763,0 5.108,1.757 5.997,4.207 h 3.437 v 4.354 h -3.437 c -0.168,0.465 -0.383,0.899 -0.648,1.304 h 2.002 v 2.904 L 88.431,79.2 h 2.708 v 1.6 h -4.257 l -22.5,-14.925 -8.506,20.147 h -3.05 v -1.594 h 1.501 L 59.013,64.57 36.887,79.055 H 32.63 v -1.597 z"
         id="path2"
         style="fill:#f4e9df;fill-opacity:1;stroke-width:1.17353" /></g></g></svg>
