<?xml version="1.0" encoding="UTF-8"?>
<svg id="Layer_1" data-name="Layer 1" xmlns="http://www.w3.org/2000/svg" viewBox="0 0 80 80">
  <defs>
    <style>
      .cls-1 {
        fill-rule: evenodd;
      }

      .cls-1, .cls-2 {
        fill: #f4e9df;
        stroke-width: 0px;
      }
    </style>
  </defs>
  <polyline class="cls-1" points="53 34.11 53 32.39 32.98 32.39 32.98 34.11"/>
  <rect class="cls-2" x="32.98" y="29.13" width="20.02" height="1.65"/>
  <path class="cls-1" d="m54.96,30.92c0,.88.71,1.59,1.59,1.59s1.59-.71,1.59-1.59-.71-1.59-1.59-1.59-1.59.71-1.59,1.59Z"/>
  <polygon class="cls-1" points="54.08 23.43 52.79 22.03 43.36 22.03 43.36 27.35 54.75 27.35 54.08 23.43"/>
  <path class="cls-1" d="m30.09,29.36c-.11-.02-.21-.03-.33-.03-.88,0-1.59.71-1.59,1.59s.71,1.59,1.59,1.59c.11,0,.22-.01.33-.03.72-.15,1.27-.79,1.27-1.56s-.54-1.41-1.27-1.56Z"/>
  <path class="cls-1" d="m64.16,14.75l-23.8-5.95c-.24-.06-.48-.06-.72,0l-23.8,5.95c-.66.17-1.13.76-1.13,1.44v23.8c0,22.45,24.37,31.01,24.81,31.16.31.11.64.11.95,0,.44-.15,24.81-8.71,24.81-31.16v-23.8c0-.68-.46-1.28-1.13-1.44Zm-2.2,32.16c0,1.31-1.06,2.37-2.37,2.37h-1.69c-1.31,0-2.37-1.06-2.37-2.37v-4.05h-4.74l-.85.81h-13.91l-.85-.81h-4.45v4.05c0,1.31-1.06,2.37-2.37,2.37h-1.69c-1.31,0-2.37-1.06-2.37-2.37v-9.93c0-1.31,1.06-2.37,2.37-2.37h1.69c1.31,0,2.37,1.06,2.37,2.37v4.05h2.53l-1.61-1.53v-2.51c0-.45-.09-.88-.26-1.27-.02-.05-.04-.1-.06-.14-.29-.62-.77-1.13-1.37-1.46-.48-.27-1.03-.42-1.61-.42h-1.69s-.03,0-.04,0h0c-1.8.02-3.25,1.49-3.25,3.3v2.66h-4.09l-1.19-2.85v-9.73l1.39-4.82h8.57l2.01,4.07v.72l.79-4.23,1.43-1.49h21.39l1.43,1.49.89,4.91h.55v-4.29c-.09-.04-.15-.09-.15-.14,0,0,.02-.02.02-.02,0,0-.02-.01-.02-.02s.02-.02.02-.02c0,0-.02-.01-.02-.02s.02-.02.02-.02c0,0-.02-.01-.02-.02s.02-.02.02-.02c0,0-.02-.01-.02-.02s.02-.02.02-.02c0,0-.02-.01-.02-.02,0-.17.54-.31,1.21-.31s1.21.14,1.21.31c0,0-.02.02-.02.02,0,0,.02.01.02.02s-.02.02-.02.02c0,0,.02.01.02.02s-.02.02-.02.02c0,0,.02.01.02.02s-.02.02-.02.02c0,0,.02.01.02.02s-.02.02-.02.02c0,0,.02.01.02.02,0,.05-.06.1-.16.14v4.29h.11l.57.75v5.22h-1.44c-1.31,0-2.45.77-2.98,1.88l-.06.14c-.16.39-.26.82-.26,1.27v2.24l-1.89,1.81h2.82v-4.05c0-1.31,1.06-2.37,2.37-2.37h1.69c1.31,0,2.37,1.06,2.37,2.37v9.93Z"/>
  <polygon class="cls-1" points="29.04 26.51 27.29 23.23 20.06 23.23 18.97 27.19 18.97 28.51 26.64 28.51 26.64 28.48 27.2 27.72 29.04 27.72 29.04 26.51"/>
  <polygon class="cls-1" points="42.54 22.03 33.32 22.03 32.02 23.43 31.35 27.35 42.54 27.35 42.54 22.03"/>
</svg>