<?xml version="1.0" encoding="UTF-8"?>
<svg id="Layer_1" data-name="Layer 1" xmlns="http://www.w3.org/2000/svg" viewBox="0 0 80 80">
  <defs>
    <style>
      .cls-1 {
        fill: #f4e9df;
        fill-rule: evenodd;
        stroke-width: 0px;
      }
    </style>
  </defs>
  <polygon class="cls-1" points="51.73 46.3 50.25 46.3 50.25 49.31 47.24 49.31 47.24 50.8 50.25 50.8 50.25 53.81 51.73 53.81 51.73 50.8 54.74 50.8 54.74 49.31 51.73 49.31 51.73 46.3"/>
  <path class="cls-1" d="m64.16,14.75l-23.8-5.95c-.24-.06-.48-.06-.72,0l-23.8,5.95c-.66.17-1.13.76-1.13,1.44v23.8c0,22.45,24.37,31.01,24.81,31.16.31.11.64.11.95,0,.44-.15,24.81-8.71,24.81-31.16v-23.8c0-.68-.46-1.28-1.13-1.44Zm-18.23,19.17c.16-.76.83-.89.83-.89v-6.06c0-2.54,2.41-7.8,2.41-7.8,0,0,2.41,5.26,2.41,7.8v6.06s.67.13.83.89v8.31c-.46-.09-.93-.13-1.42-.13-1.92,0-3.69.68-5.06,1.83v-10Zm-12.26,22.7h-6.48v-22.7c.16-.76.83-.89.83-.89v-6.06c0-2.54,2.41-7.8,2.41-7.8,0,0,2.41,5.26,2.41,7.8v6.06s.67.13.83.89v22.7Zm9.37,0h-6.48v-22.7c.16-.76.83-.89.83-.89v-6.06c0-2.54,2.41-7.8,2.41-7.8,0,0,2.41,5.26,2.41,7.8v6.06s.67.13.83.89v22.7Zm7.95.05c-3.67,0-6.64-2.97-6.64-6.63s2.97-6.64,6.64-6.64,6.64,2.97,6.64,6.64-2.97,6.63-6.64,6.63Z"/>
</svg>