<?xml version="1.0" encoding="UTF-8"?>
<svg id="Layer_1" data-name="Layer 1" xmlns="http://www.w3.org/2000/svg" xmlns:xlink="http://www.w3.org/1999/xlink" viewBox="0 0 80 80">
  <defs>
    <style>
      .cls-1 {
        fill: none;
      }

      .cls-1, .cls-2 {
        stroke-width: 0px;
      }

      .cls-3 {
        clip-path: url(#clippath);
      }

      .cls-2 {
        fill: #f4e9df;
      }
    </style>
    <clipPath id="clippath">
      <rect class="cls-1" x="3" y="18.03" width="75" height="46.91"/>
    </clipPath>
  </defs>
  <g class="cls-3">
    <rect class="cls-2" x="3" y="54.68" width="20.9" height="5.81" rx="1.16" ry="1.16"/>
    <rect class="cls-2" x="24.9" y="54.68" width="20.9" height="5.81" rx="1.16" ry="1.16"/>
    <rect class="cls-2" x="46.81" y="54.68" width="20.9" height="5.81" rx="1.16" ry="1.16"/>
    <rect class="cls-2" x="68.71" y="54.68" width="20.9" height="5.81" rx="1.16" ry="1.16"/>
    <rect class="cls-2" x="-8.61" y="47.87" width="20.9" height="5.81" rx="1.16" ry="1.16"/>
    <rect class="cls-2" x="13.29" y="47.87" width="20.9" height="5.81" rx="1.16" ry="1.16"/>
    <rect class="cls-2" x="35.19" y="47.87" width="20.9" height="5.81" rx="1.16" ry="1.16"/>
    <rect class="cls-2" x="57.1" y="47.87" width="20.9" height="5.81" rx="1.16" ry="1.16"/>
    <rect class="cls-2" x="3" y="41.06" width="20.9" height="5.81" rx="1.16" ry="1.16"/>
    <rect class="cls-2" x="24.9" y="41.06" width="20.9" height="5.81" rx="1.16" ry="1.16"/>
    <rect class="cls-2" x="46.81" y="41.06" width="20.9" height="5.81" rx="1.16" ry="1.16"/>
    <rect class="cls-2" x="68.71" y="41.06" width="20.9" height="5.81" rx="1.16" ry="1.16"/>
    <rect class="cls-2" x="-8.61" y="34.26" width="20.9" height="5.81" rx="1.16" ry="1.16"/>
    <rect class="cls-2" x="13.29" y="34.26" width="20.9" height="5.81" rx="1.16" ry="1.16"/>
    <rect class="cls-2" x="35.19" y="34.26" width="20.9" height="5.81" rx="1.16" ry="1.16"/>
    <rect class="cls-2" x="57.1" y="34.26" width="20.9" height="5.81" rx="1.16" ry="1.16"/>
    <rect class="cls-2" x="3" y="27.45" width="20.9" height="5.81" rx="1.16" ry="1.16"/>
    <rect class="cls-2" x="24.9" y="27.45" width="20.9" height="5.81" rx="1.16" ry="1.16"/>
    <rect class="cls-2" x="46.81" y="27.45" width="20.9" height="5.81" rx="1.16" ry="1.16"/>
    <rect class="cls-2" x="68.71" y="27.45" width="20.9" height="5.81" rx="1.16" ry="1.16"/>
    <rect class="cls-2" x="-8.61" y="20.65" width="20.9" height="5.81" rx="1.16" ry="1.16"/>
    <rect class="cls-2" x="13.29" y="20.65" width="20.9" height="5.81" rx="1.16" ry="1.16"/>
    <rect class="cls-2" x="35.19" y="20.65" width="20.9" height="5.81" rx="1.16" ry="1.16"/>
    <rect class="cls-2" x="57.1" y="20.65" width="20.9" height="5.81" rx="1.16" ry="1.16"/>
  </g>
</svg>