<?xml version="1.0" encoding="UTF-8"?>
<svg id="Layer_1" data-name="Layer 1" xmlns="http://www.w3.org/2000/svg" viewBox="0 0 80 80">
  <defs>
    <style>
      .cls-1 {
        fill: #f4e9df;
        stroke-width: 0px;
      }
    </style>
  </defs>
  <path class="cls-1" d="m47.99,23.09v-3.43h-3.49v-.18h-9.39v.18h-3.49v3.43H12.5v13.23l2.08-.23v24.42h50.85v-30.18l2.08-.23v-7h-19.51Zm-14.63-1.68h1.74v.17h9.39v-.17h1.74v1.68h-12.88v-1.68Zm25.35,18.72c-.02.36-.28.57-.64.52-.21-.03-.65-.13-.65-.13,0,0-2.38-.05-3.25-.04-.13.55-.29.68-.89.68-1.89,0-3.79.01-5.68,0-.51,0-1,.05-1.48.23-.38.14-.49.06-.58-.38-.12.02-.24.03-.39.06-.02.2,0,.48-.35.5-.03,0-.07.09-.07.14-.05.51-.02,3.16.09,3.62.26,1.05.56,2.1.86,3.14.11.39.08.5-.31.6-.79.19-1.58.38-2.37.57-.38.09-.44.06-.59-.3-.57-1.4-.94-2.86-1.09-4.36-.01-.1-.06-1.13-.06-1.24-.1,0-.18-.02-.26-.02-1.07,0-2.14,0-3.21,0-.19,0-.27.06-.34.24-.38.93-.78,1.86-1.19,2.78-.19.43-.52.61-.99.55-.73-.09-1.3-.46-1.69-1.08-.19-.29-.21-.61-.05-.93.41-.84.82-1.67,1.21-2.51.13-.28.26-.56.35-.85.09-.28.01-.36-.27-.36-.24,0-.48,0-.71,0-.23,0-.35-.12-.34-.35,0-.2.01-.4.02-.62-.31.02-.58.04-.88.06q-.12.37-.6.37c-.21,0-.41-.01-.64-.02.02.35-.18.45-.43.54-1.92.66-3.83,1.33-5.75,2-.48.16-.6.07-.6-.44v-4.81c0-.41.07-.48.49-.48,1.75,0,3.51,0,5.26,0,.35,0,.63.1.86.37.06.07.18.11.27.12.22.02.43,0,.65,0,.37,0,.42.04.47.41.3,0,.57.01.85.02,0-.06.01-.09.01-.13q.01-.55.56-.6c.7-.06,1.11-.52,1.43-1.07.31-.52.58-1.06.91-1.56.28-.43.71-.61,1.23-.55,1.92.22,3.84.43,5.76.64.97.11,1.48.69,1.48,1.67,0,.37-.01.75-.02,1.15.16,0,.28,0,.41.01.16-.49.2-.52.7-.34.41.15.82.2,1.25.2,1.94-.01,3.88,0,5.82,0,.24,0,.48.09.79.15.14-.23.31-.55.52-.84.08-.12.26-.21.4-.23.29-.04.59-.01.89-.01.26,0,.37.13.37.39,0,.45,0,.91,0,1.39.19-.01,1.14-.09,1.14-.09,0,0,.45-.09.66-.13.39-.07.64.14.66.53.01.28.01.55,0,.83Zm-15.45-3.41c-.08-.02-.18-.02-.27-.02h-4.22c-.09,0-.2-.02-.26.02-.15.1-.33.21-.38.36-.06.15.02.35.05.56.22.05.39.11.56.11,1.42.01,2.85,0,4.28,0,.08,0,.16,0,.24-.02.27-.06.41-.24.41-.51s-.13-.45-.4-.51Zm-4.19,5.79c-.05-.06-.46-.53-.64-.75-.06-.07-.1-.15-.18-.27,0,.6,0,1.11,0,1.58h2.97c.05-.48.09-.99.14-1.46-.78,0-1.56.01-2.37.01-.32,0-.05.38.08.88Z"/>
</svg>