<?xml version="1.0" encoding="UTF-8"?>
<svg id="Layer_1" data-name="Layer 1" xmlns="http://www.w3.org/2000/svg" viewBox="0 0 80 80">
  <defs>
    <style>
      .cls-1 {
        fill: #f4e9df;
        fill-rule: evenodd;
        stroke-width: 0px;
      }
    </style>
  </defs>
  <path class="cls-1" d="m64.16,14.75l-23.8-5.95c-.24-.06-.48-.06-.72,0l-23.8,5.95c-.66.17-1.13.76-1.13,1.44v23.8c0,22.45,24.37,31.01,24.81,31.16.31.11.64.11.95,0,.44-.15,24.81-8.71,24.81-31.16v-23.8c0-.68-.46-1.28-1.13-1.44Zm-42.88,9.8c0-1.86,1.51-3.37,3.37-3.37h30.7c1.86,0,3.37,1.51,3.37,3.37v3.86h-15.11v1.02c0,1.13-.92,2.05-2.05,2.05h-2.48c-1.13,0-2.05-.92-2.05-2.05v-1.02h-15.72v-3.86Zm37.43,23.19c0,1.86-1.51,3.37-3.37,3.37h-30.69c-1.86,0-3.38-1.52-3.38-3.38v-18.37h14.76v.07c0,1.67,1.35,3.02,3.02,3.02h2.48c1.67,0,3.02-1.35,3.02-3.02v-.07h14.15v18.38Zm-14.27-6.12c0,2.47-2.01,4.48-4.49,4.48-1.23,0-2.35-.49-3.17-1.31l-1.49,1.49c1.2,1.2,2.85,1.93,4.66,1.93,3.64,0,6.59-2.95,6.59-6.59h1.7l-2.78-2.78-2.78,2.78h1.74Zm-9.07-4.43c-1.2,1.2-1.93,2.85-1.93,4.67h-1.7l2.78,2.78,2.78-2.78h-1.74c0-2.47,2.01-4.49,4.49-4.49,1.24,0,2.35.5,3.17,1.31l1.49-1.49c-1.19-1.19-2.85-1.93-4.66-1.93s-3.47.74-4.66,1.93Z"/>
</svg>