<?xml version="1.0" encoding="UTF-8"?>
<svg id="Layer_1" data-name="Layer 1" xmlns="http://www.w3.org/2000/svg" viewBox="0 0 80 80">
  <defs>
    <style>
      .cls-1 {
        fill: #f4e9df;
        stroke-width: 0px;
      }
    </style>
  </defs>
  <path class="cls-1" d="m39.06,36.51c-.05-.06-.46-.53-.63-.75-.06-.07-.1-.15-.17-.27,0,.6,0,1.11,0,1.58h2.97c.05-.48.09-.99.14-1.46-.78,0-1.55.01-2.37.01-.32,0-.05.38.08.88Z"/>
  <path class="cls-1" d="m43.26,30.72c-.09-.02-.18-.02-.27-.02h-4.22c-.09,0-.2-.02-.26.02-.15.1-.33.21-.38.36-.06.15.02.35.05.56.22.05.38.11.55.11,1.43.01,2.85,0,4.28,0,.08,0,.16,0,.23-.02.27-.06.41-.24.41-.51,0-.27-.14-.45-.4-.51Z"/>
  <path class="cls-1" d="m61.05,39.23l4.38,4.38v-19.28l2.08-.24v-7h-20.35v-3.43h-3.49v-.17h-9.39v.17h-3.49v3.43H12.5v13.23l2.08-.24v24.42h31.07v-7.78h8.21l7.19-7.5Zm-28.53-23.82h1.74v.18h9.39v-.18h1.74v1.68h-12.88v-1.68Zm15.07,19.75c-.51,0-1,.05-1.48.23-.38.14-.49.06-.58-.38-.11.02-.24.03-.39.06-.02.2,0,.48-.35.5-.03,0-.07.09-.07.14-.05.51-.02,3.16.09,3.62.26,1.05.55,2.1.86,3.14.11.39.08.5-.31.6-.79.19-1.58.38-2.37.57-.37.09-.44.06-.58-.3-.57-1.4-.94-2.86-1.09-4.36-.01-.1-.06-1.13-.06-1.24-.11,0-.18-.02-.26-.02-1.07,0-2.14,0-3.21,0-.19,0-.27.06-.34.24-.38.93-.78,1.86-1.19,2.78-.19.43-.52.61-.99.55-.73-.09-1.3-.46-1.7-1.08-.19-.29-.21-.61-.05-.93.41-.84.82-1.67,1.21-2.51.13-.28.26-.56.35-.85.09-.28,0-.36-.27-.36-.24,0-.48,0-.71,0-.23,0-.35-.12-.34-.35,0-.2.01-.4.02-.62-.31.02-.58.04-.88.06q-.12.37-.6.37c-.21,0-.41-.01-.64-.02.02.35-.18.45-.43.54-1.92.66-3.83,1.33-5.75,2-.48.16-.6.07-.6-.44,0-1.6,0-3.21,0-4.81,0-.41.07-.48.49-.48,1.75,0,3.51,0,5.26,0,.35,0,.63.1.86.37.06.07.18.11.28.12.21.02.43,0,.65,0,.37,0,.42.04.47.41.3,0,.57.01.85.02,0-.06,0-.09.01-.13q.01-.55.56-.6c.7-.06,1.11-.52,1.43-1.07.31-.52.58-1.06.91-1.56.28-.43.7-.61,1.23-.55,1.92.22,3.84.43,5.76.64.97.11,1.48.69,1.48,1.67,0,.37-.01.75-.02,1.15.16,0,.28,0,.41.01.16-.49.2-.52.7-.34.41.15.82.2,1.25.2,1.94-.01,3.88,0,5.82,0,.24,0,.48.09.79.15.14-.23.31-.55.52-.84.08-.12.26-.21.4-.23.29-.04.6-.01.89-.01.26,0,.37.13.37.39,0,.45,0,.91,0,1.39.19-.01,1.14-.09,1.14-.09,0,0,.45-.09.66-.13.39-.07.64.14.66.52.01.28.01.55,0,.83-.02.36-.27.57-.64.52-.21-.03-.66-.13-.66-.13,0,0-2.38-.05-3.26-.04-.13.55-.29.68-.89.68-1.89,0-3.78.01-5.67,0Z"/>
  <polygon class="cls-1" points="46.8 53.04 71 53.04 60.46 42.49 57.88 45.07 62.21 49.39 46.8 49.39 46.8 53.04"/>
  <polygon class="cls-1" points="71 55.97 46.8 55.97 57.34 66.52 59.92 63.94 55.59 59.61 71 59.61 71 55.97"/>
</svg>