<?xml version="1.0" encoding="UTF-8" standalone="no"?>
<!-- Created with Inkscape (http://www.inkscape.org/) -->

<svg
   viewBox="0 0 80 80"
   version="1.1"
   id="svg1"
   xml:space="preserve"
   inkscape:version="1.3 (0e150ed6c4, 2023-07-21)"
   sodipodi:docname="drawing.svg"
   xmlns:inkscape="http://www.inkscape.org/namespaces/inkscape"
   xmlns:sodipodi="http://sodipodi.sourceforge.net/DTD/sodipodi-0.dtd"
   xmlns="http://www.w3.org/2000/svg"
   xmlns:svg="http://www.w3.org/2000/svg"><sodipodi:namedview
     id="namedview1"
     pagecolor="#ffffff"
     bordercolor="#000000"
     borderopacity="0.25"
     inkscape:showpageshadow="2"
     inkscape:pageopacity="0.0"
     inkscape:pagecheckerboard="0"
     inkscape:deskcolor="#d1d1d1"
     inkscape:document-units="mm"
     inkscape:zoom="5.7941077"
     inkscape:cx="17.086324"
     inkscape:cy="48.756429"
     inkscape:window-width="1920"
     inkscape:window-height="1009"
     inkscape:window-x="1912"
     inkscape:window-y="-8"
     inkscape:window-maximized="1"
     inkscape:current-layer="g1" /><defs
     id="defs1" /><g
     inkscape:label="Layer 1"
     inkscape:groupmode="layer"
     id="layer1"><g
       id="g1"
       transform="matrix(0.26458333,0,0,0.26458333,92.930514,131.16258)"><path
         d="m -121.17128,-401.31279 c -3.01605,-0.83489 -6.42196,0.23436 -7.59144,2.3875 l -41.03485,75.33068 c -1.1695,2.15314 0.32828,4.56994 3.34433,5.41948 0.6976,0.19041 1.41571,0.29294 2.13382,0.29294 2.33898,0 4.55486,-1.01066 5.45763,-2.66579 l 41.03485,-75.33069 c 1.1695,-2.16778 -0.32828,-4.59922 -3.34434,-5.43412 z"
         id="path1"
         style="fill:#f4e9df;fill-opacity:1;stroke-width:1.73355" /><path
         d="m -232.56038,-367.84387 c -3.01605,-0.8349 -6.42195,0.23435 -7.59144,2.3875 l -41.03485,75.33067 c -1.16949,2.15315 0.32828,4.56993 3.34435,5.41948 0.69758,0.19042 1.41569,0.29294 2.13381,0.29294 2.33897,0 4.55486,-1.01066 5.45762,-2.6658 l 41.03486,-75.33067 c 1.16949,-2.16779 -0.32829,-4.58459 -3.34435,-5.43412 z"
         id="path2"
         style="fill:#f4e9df;fill-opacity:1;stroke-width:1.73355" /><path
         d="m -162.1651,-367.82923 c -2.97502,-0.84954 -6.42195,0.19042 -7.61196,2.32892 l -23.45141,41.86176 c -1.21052,2.1385 0.26672,4.58458 3.26226,5.43412 0.71811,0.20506 1.45675,0.29295 2.17486,0.29295 2.31847,0 4.53435,-0.99601 5.43711,-2.6365 l 23.47194,-41.83248 c 1.19,-2.15314 -0.26673,-4.58458 -3.2828,-5.44877 z"
         id="path3"
         style="fill:#f4e9df;fill-opacity:1;stroke-width:1.73355" /><path
         d="m -185.61651,-367.82923 c -2.97502,-0.84954 -6.42196,0.19042 -7.61196,2.32892 l -23.45142,41.86176 c -1.21053,2.1385 0.26673,4.58458 3.26228,5.43412 0.7181,0.20506 1.45673,0.29295 2.17484,0.29295 2.31847,0 4.53435,-0.99601 5.43712,-2.6365 l 23.45141,-41.84713 c 1.21052,-2.13849 -0.24621,-4.56993 -3.26227,-5.43412 z"
         id="path4"
         style="fill:#f4e9df;fill-opacity:1;stroke-width:1.73355" /><path
         d="m -209.04741,-367.82923 c -3.01605,-0.86418 -6.42195,0.19042 -7.61196,2.32892 l -23.45141,41.86176 c -1.21053,2.1385 0.26672,4.58458 3.26226,5.43412 0.71811,0.20506 1.45674,0.29295 2.17486,0.29295 2.31846,0 4.53434,-0.99601 5.43711,-2.6365 l 23.45141,-41.84713 c 1.21053,-2.13849 -0.26672,-4.56993 -3.26227,-5.43412 z"
         id="path5"
         style="fill:#f4e9df;fill-opacity:1;stroke-width:1.73355" /><path
         d="m -135.32831,-327.5933 c -1.02587,-2.19709 -4.30866,-3.3835 -7.40678,-2.65115 -3.07762,0.73236 -4.71901,3.09056 -3.71365,5.28765 l 17.58342,37.65802 c 0.82071,1.75767 3.09814,2.8562 5.56023,2.8562 0.61553,0 1.23104,-0.0733 1.84657,-0.2197 3.07761,-0.73237 4.719,-3.09057 3.71365,-5.28766 z"
         id="path6"
         style="fill:#f4e9df;fill-opacity:1;stroke-width:1.73355" /><path
         d="m -263.68531,-358.4257 c 0.8207,1.75766 3.09814,2.8562 5.56022,2.8562 0.61553,0 1.23105,-0.0733 1.84657,-0.2197 3.07762,-0.73237 4.73954,-3.10522 3.71365,-5.28766 l -17.58342,-37.65801 c -1.02587,-2.19708 -4.32919,-3.38351 -7.40679,-2.65114 -3.07762,0.73235 -4.73953,3.1052 -3.71365,5.28764 z"
         id="path7"
         style="fill:#f4e9df;fill-opacity:1;stroke-width:1.73355" /></g></g></svg>
