<?xml version="1.0" encoding="UTF-8"?>
<svg id="Layer_1" data-name="Layer 1" xmlns="http://www.w3.org/2000/svg" xmlns:xlink="http://www.w3.org/1999/xlink" viewBox="0 0 80 80">
  <defs>
    <style>
      .cls-1 {
        fill: none;
      }

      .cls-1, .cls-2 {
        stroke-width: 0px;
      }

      .cls-3 {
        clip-path: url(#clippath);
      }

      .cls-2 {
        fill: #f4e9df;
      }
    </style>
    <clipPath id="clippath">
      <rect class="cls-1" x="88.42" y="18.03" width="75" height="46.91"/>
    </clipPath>
  </defs>
  <g>
    <g>
      <g>
        <rect class="cls-2" x="39.8" y="6.07" width="6.75" height="65.42" transform="translate(61.17 93.96) rotate(-150)"/>
        <rect class="cls-2" x="39.06" y="30.49" width="9.04" height="15.18" transform="translate(62.28 92.85) rotate(-150)"/>
        <ellipse class="cls-2" cx="47.37" cy="31.51" rx=".79" ry="4.52" transform="translate(-3.6 56.78) rotate(-60)"/>
        <ellipse class="cls-2" cx="39.78" cy="44.65" rx=".79" ry="4.52" transform="translate(-18.78 56.78) rotate(-60)"/>
        <polyline class="cls-2" points="51.23 26.74 55.38 33.67 59.53 29.75 55.38 22.74"/>
        <circle class="cls-2" cx="57.53" cy="26.24" r="1.96"/>
        <polyline class="cls-2" points="57.53 31.64 52.84 69.92 51.82 70.39 55.38 33.67"/>
        <polyline class="cls-2" points="57.53 31.64 62.25 65.93 63.21 65.93 59.37 29.54"/>
        <g>
          <ellipse class="cls-2" cx="28.34" cy="66.14" rx="15.24" ry="3.5"/>
          <ellipse class="cls-2" cx="28.34" cy="67.47" rx="16.31" ry="3.5"/>
        </g>
        <polyline class="cls-2" points="52.92 69.57 53.88 70.09 52.92 70.61 52.4 71.57 51.88 70.61 50.92 70.09 51.88 69.57"/>
        <polyline class="cls-2" points="63.12 65.24 63.97 65.71 63.12 66.18 62.65 67.03 62.19 66.18 61.33 65.71 62.19 65.24"/>
      </g>
      <path class="cls-2" d="m42.67,64.94s1.69.93,1.98,2.52l-2.42.68.44-3.2Z"/>
      <path class="cls-2" d="m14,64.94s-1.69.93-1.98,2.52l2.42.68-.44-3.2Z"/>
    </g>
    <ellipse class="cls-2" cx="59.53" cy="10.46" rx="1.3" ry="3.37" transform="translate(20.71 56.78) rotate(-60)"/>
  </g>
  <g class="cls-3">
    <rect class="cls-2" x="76.81" y="47.87" width="20.9" height="5.81" rx="1.16" ry="1.16"/>
    <rect class="cls-2" x="76.81" y="34.26" width="20.9" height="5.81" rx="1.16" ry="1.16"/>
    <rect class="cls-2" x="76.81" y="20.65" width="20.9" height="5.81" rx="1.16" ry="1.16"/>
  </g>
</svg>